{
  "accessors": [
    {
      "bufferView": 1,
      "componentType": 5126,
      "count": 13216,
      "max": [
        3.5310170650482178,
        1.1076430082321167,
        4.6919999122619629
      ],
      "min": [
        -2.7271881103515625,
        -1.1296709775924683,
        -3.7474770545959473
      ],
      "type": "VEC3"
    },
    {
      "bufferView": 1,
      "byteOffset": 158592,
      "componentType": 5126,
      "count": 13216,
      "max": [
        0.99993181228637695,
        0.9999883770942688,
        0.95239067077636719
      ],
      "min": [
        -0.99996399879455566,
        -0.99999535083770752,
        -0.99971860647201538
      ],
      "type": "VEC3"
    },
    {
      "bufferView": 2,
      "componentType": 5126,
      "count": 13216,
      "max": [
        0.99990719556808472,
        0.99988293647766113,
        0.99229079484939575,
        1
      ],
      "min": [
        -0.99998867511749268,
        -0.99992084503173828,
        -0.99241799116134644,
        -1
      ],
      "type": "VEC4"
    },
    {
      "bufferView": 0,
      "componentType": 5125,
      "count": 76800,
      "max": [
        13215
      ],
      "min": [
        0
      ],
      "type": "SCALAR"
    }
  ],
  "asset": {
    "extras": {
      "author": "BlockedGravity (https://sketchfab.com/blockedgravity)",
      "license": "CC-BY-NC-SA-4.0 (http://creativecommons.org/licenses/by-nc-sa/4.0/)",
      "source": "https://sketchfab.com/models/8c0d285c1e6b4ba3b5ea777b563c4c80",
      "title": "Banana"
    },
    "generator": "Sketchfab-3.18.7",
    "version": "2.0"
  },
  "bufferViews": [
    {
      "buffer": 0,
      "byteLength": 307200,
      "byteOffset": 0,
      "name": "floatBufferViews",
      "target": 34963
    },
    {
      "buffer": 0,
      "byteLength": 317184,
      "byteOffset": 307200,
      "byteStride": 12,
      "name": "floatBufferViews",
      "target": 34962
    },
    {
      "buffer": 0,
      "byteLength": 211456,
      "byteOffset": 624384,
      "byteStride": 16,
      "name": "floatBufferViews",
      "target": 34962
    }
  ],
  "buffers": [
    {
      "byteLength": 835840,
      "uri": "scene.bin"
    }
  ],
  "materials": [
    {
      "doubleSided": true,
      "emissiveFactor": [
        0.36139924016147751,
        0.18026573188384634,
        0
      ],
      "name": "Scene_-_Root",
      "pbrMetallicRoughness": {
        "baseColorFactor": [
          0.81548185242412929,
          0.58665537697008652,
          0.1153706780590618,
          1
        ],
        "metallicFactor": 0,
        "roughnessFactor": 0.59999999999999998
      }
    }
  ],
  "meshes": [
    {
      "primitives": [
        {
          "attributes": {
            "NORMAL": 1,
            "POSITION": 0,
            "TANGENT": 2
          },
          "indices": 3,
          "material": 0,
          "mode": 4
        }
      ]
    }
  ],
  "nodes": [
    {
      "children": [
        1
      ],
      "name": "RootNode (gltf orientation matrix)",
      "rotation": [
        -0.70710678118654746,
        -0,
        -0,
        0.70710678118654757
      ]
    },
    {
      "children": [
        2
      ],
      "name": "RootNode (model correction matrix)"
    },
    {
      "children": [
        3
      ],
      "name": "eb52281cc1594f0285c164eb677c8f38.obj.cleaner"
    },
    {
      "mesh": 0,
      "name": ""
    }
  ],
  "scene": 0,
  "scenes": [
    {
      "name": "OSG_Scene",
      "nodes": [
        0
      ]
    }
  ]
}

